HIERARCHY
ROOT Hips
{
    OFFSET   0.000000   0.000000   0.000000
    CHANNELS 6 Xposition Yposition Zposition Zrotation Xrotation Yrotation
    JOINT Chest
    {
        OFFSET   0.000000   8.007240   0.000000
        CHANNELS 3 Zrotation Xrotation Yrotation
        JOINT Chest2
        {
            OFFSET   0.000000  22.077100   0.000000
            CHANNELS 3 Zrotation Xrotation Yrotation
            JOINT Neck
            {
                OFFSET   0.000000  23.254800   0.000000
                CHANNELS 3 Zrotation Xrotation Yrotation
                JOINT Head
                {
                    OFFSET   0.000000  14.370000   1.956600
                    CHANNELS 3 Zrotation Xrotation Yrotation
                    End Site
                    {
                        OFFSET   0.000000  19.566000   0.000000
                    }
                }
            }
            JOINT LeftCollar
            {
                OFFSET   3.911900  19.017000  -0.467064
                CHANNELS 3 Zrotation Xrotation Yrotation
                JOINT LeftShoulder
                {
                    OFFSET  10.383700   0.000000   0.000000
                    CHANNELS 3 Zrotation Xrotation Yrotation
                    JOINT LeftElbow
                    {
                        OFFSET  26.662100   0.001476   0.000517
                        CHANNELS 3 Zrotation Xrotation Yrotation
                        JOINT LeftWrist
                        {
                            OFFSET  28.869000  -0.000025  -0.000106
                            CHANNELS 3 Zrotation Xrotation Yrotation
                            JOINT LeftFinger0
                            {
                                OFFSET   2.044660  -2.323460   3.252850
                                CHANNELS 3 Zrotation Xrotation Yrotation
                                JOINT LeftFinger01
                                {
                                    OFFSET   3.088130   0.000000   0.000000
                                    CHANNELS 3 Zrotation Xrotation Yrotation
                                    JOINT LeftFinger02
                                    {
                                        OFFSET   2.639460   0.000000   0.000000
                                        CHANNELS 3 Zrotation Xrotation Yrotation
                                        End Site
                                        {
                                            OFFSET   2.582190   0.000000   0.000000
                                        }
                                    }
                                }
                            }
                            JOINT LeftFinger1
                            {
                                OFFSET   8.364480   0.000000   3.252850
                                CHANNELS 3 Zrotation Xrotation Yrotation
                                JOINT LeftFinger11
                                {
                                    OFFSET   4.646930   0.000000   0.000000
                                    CHANNELS 3 Zrotation Xrotation Yrotation
                                    JOINT LeftFinger12
                                    {
                                        OFFSET   2.323460   0.000000   0.000000
                                        CHANNELS 3 Zrotation Xrotation Yrotation
                                        End Site
                                        {
                                            OFFSET   2.273050   0.000000   0.000000
                                        }
                                    }
                                }
                            }
                            JOINT LeftFinger2
                            {
                                OFFSET   8.364490   0.000015   1.078090
                                CHANNELS 3 Zrotation Xrotation Yrotation
                                JOINT LeftFinger21
                                {
                                    OFFSET   5.111620   0.000000   0.000000
                                    CHANNELS 3 Zrotation Xrotation Yrotation
                                    JOINT LeftFinger22
                                    {
                                        OFFSET   2.788160   0.000016   0.000000
                                        CHANNELS 3 Zrotation Xrotation Yrotation
                                        End Site
                                        {
                                            OFFSET   2.727660   0.000000   0.000000
                                        }
                                    }
                                }
                            }
                            JOINT LeftFinger3
                            {
                                OFFSET   7.899780   0.000017  -1.078090
                                CHANNELS 3 Zrotation Xrotation Yrotation
                                JOINT LeftFinger31
                                {
                                    OFFSET   4.646930   0.000000   0.000000
                                    CHANNELS 3 Zrotation Xrotation Yrotation
                                    JOINT LeftFinger32
                                    {
                                        OFFSET   2.323470   0.000000   0.000000
                                        CHANNELS 3 Zrotation Xrotation Yrotation
                                        End Site
                                        {
                                            OFFSET   2.273050   0.000000   0.000000
                                        }
                                    }
                                }
                            }
                            JOINT LeftFinger4
                            {
                                OFFSET   7.435090   0.000000  -3.252850
                                CHANNELS 3 Zrotation Xrotation Yrotation
                                JOINT LeftFinger41
                                {
                                    OFFSET   3.717550   0.000000   0.000000
                                    CHANNELS 3 Zrotation Xrotation Yrotation
                                    JOINT LeftFinger42
                                    {
                                        OFFSET   1.858770   0.000000   0.000000
                                        CHANNELS 3 Zrotation Xrotation Yrotation
                                        End Site
                                        {
                                            OFFSET   1.818440   0.000000   0.000000
                                        }
                                    }
                                }
                            }
                        }
                    }
                }
            }
            JOINT RightCollar
            {
                OFFSET  -3.911900  19.017000  -0.467063
                CHANNELS 3 Zrotation Xrotation Yrotation
                JOINT RightShoulder
                {
                    OFFSET -10.383700   0.000019   0.000000
                    CHANNELS 3 Zrotation Xrotation Yrotation
                    JOINT RightElbow
                    {
                        OFFSET -26.662100   0.001175   0.000102
                        CHANNELS 3 Zrotation Xrotation Yrotation
                        JOINT RightWrist
                        {
                            OFFSET -28.869000   0.000016  -0.000079
                            CHANNELS 3 Zrotation Xrotation Yrotation
                            JOINT RightFinger0
                            {
                                OFFSET  -2.044660  -2.323490   3.252850
                                CHANNELS 3 Zrotation Xrotation Yrotation
                                JOINT RightFinger01
                                {
                                    OFFSET  -3.088140   0.000000   0.000000
                                    CHANNELS 3 Zrotation Xrotation Yrotation
                                    JOINT RightFinger02
                                    {
                                        OFFSET  -2.639460   0.000000   0.000000
                                        CHANNELS 3 Zrotation Xrotation Yrotation
                                        End Site
                                        {
                                            OFFSET  -2.582190   0.000000   0.000000
                                        }
                                    }
                                }
                            }
                            JOINT RightFinger1
                            {
                                OFFSET  -8.364480   0.000000   3.252850
                                CHANNELS 3 Zrotation Xrotation Yrotation
                                JOINT RightFinger11
                                {
                                    OFFSET  -4.646930   0.000000   0.000000
                                    CHANNELS 3 Zrotation Xrotation Yrotation
                                    JOINT RightFinger12
                                    {
                                        OFFSET  -2.323470   0.000000   0.000000
                                        CHANNELS 3 Zrotation Xrotation Yrotation
                                        End Site
                                        {
                                            OFFSET  -2.273050   0.000000   0.000000
                                        }
                                    }
                                }
                            }
                            JOINT RightFinger2
                            {
                                OFFSET  -8.364480   0.000000   1.078090
                                CHANNELS 3 Zrotation Xrotation Yrotation
                                JOINT RightFinger21
                                {
                                    OFFSET  -5.111620   0.000000   0.000000
                                    CHANNELS 3 Zrotation Xrotation Yrotation
                                    JOINT RightFinger22
                                    {
                                        OFFSET  -2.788160   0.000000   0.000000
                                        CHANNELS 3 Zrotation Xrotation Yrotation
                                        End Site
                                        {
                                            OFFSET  -2.727660   0.000000   0.000000
                                        }
                                    }
                                }
                            }
                            JOINT RightFinger3
                            {
                                OFFSET  -7.899780   0.000000  -1.078090
                                CHANNELS 3 Zrotation Xrotation Yrotation
                                JOINT RightFinger31
                                {
                                    OFFSET  -4.646930   0.000000   0.000000
                                    CHANNELS 3 Zrotation Xrotation Yrotation
                                    JOINT RightFinger32
                                    {
                                        OFFSET  -2.323470   0.000000   0.000000
                                        CHANNELS 3 Zrotation Xrotation Yrotation
                                        End Site
                                        {
                                            OFFSET  -2.273050   0.000000   0.000000
                                        }
                                    }
                                }
                            }
                            JOINT RightFinger4
                            {
                                OFFSET  -7.435090   0.000000  -3.252850
                                CHANNELS 3 Zrotation Xrotation Yrotation
                                JOINT RightFinger41
                                {
                                    OFFSET  -3.717550   0.000000   0.000000
                                    CHANNELS 3 Zrotation Xrotation Yrotation
                                    JOINT RightFinger42
                                    {
                                        OFFSET  -1.858770   0.000000   0.000000
                                        CHANNELS 3 Zrotation Xrotation Yrotation
                                        End Site
                                        {
                                            OFFSET  -1.818440   0.000000   0.000000
                                        }
                                    }
                                }
                            }
                        }
                    }
                }
            }
        }
    }
    JOINT LeftHip
    {
        OFFSET   9.783040   0.000000   0.000000
        CHANNELS 3 Zrotation Xrotation Yrotation
        JOINT LeftKnee
        {
            OFFSET   0.000032 -41.789100  -0.002222
            CHANNELS 3 Zrotation Xrotation Yrotation
            JOINT LeftAnkle
            {
                OFFSET   0.000087 -41.133200  -0.000135
                CHANNELS 3 Zrotation Xrotation Yrotation
                JOINT LeftToe
                {
                    OFFSET   0.000000  -6.358960  14.674500
                    CHANNELS 3 Zrotation Xrotation Yrotation
                    End Site
                    {
                        OFFSET   0.000000   0.000000   3.913200
                    }
                }
            }
        }
    }
    JOINT RightHip
    {
        OFFSET  -9.783040   0.000000   0.000000
        CHANNELS 3 Zrotation Xrotation Yrotation
        JOINT RightKnee
        {
            OFFSET   0.000047 -41.789100  -0.000896
            CHANNELS 3 Zrotation Xrotation Yrotation
            JOINT RightAnkle
            {
                OFFSET  -0.000117 -41.133300  -0.000248
                CHANNELS 3 Zrotation Xrotation Yrotation
                JOINT RightToe
                {
                    OFFSET   0.000000  -6.358970  14.674500
                    CHANNELS 3 Zrotation Xrotation Yrotation
                    End Site
                    {
                        OFFSET   0.000000   0.000000   3.913200
                    }
                }
            }
        }
    }
}
MOTION
Frames: 6
Frame Time:   0.016667
 -0.049440  89.517000  -0.035374  -2.115100  -3.543160   3.305220   1.064750   2.211570  -0.434868   2.148670   4.414600  -0.911840   0.290629  -0.299766   0.001910   0.477507  -0.607853   3.125420  -5.106840   2.538390  -1.255790 -73.471400  15.305100  -5.787510  -2.031420  -3.142030 -11.443300   5.316500  -7.617830   9.341520  41.470300  29.076900 -68.039200 -14.296500  -0.002928  -0.000677  -2.151500  -0.001439  -0.000000 -26.828800   5.106560  -9.981070 -22.308600   0.002325   0.030520 -15.618600  -0.017698   0.015560 -27.067800   3.028250  -5.902240 -27.933000   0.030149   0.080019 -18.603400  -0.005425   0.055662 -27.301200   0.596418  -1.155190 -28.300000   0.017997   0.068105 -18.847800  -0.017637   0.042301 -31.188600   0.673325  -1.112130 -46.792800  -0.018871   0.017909 -31.164000  -0.017182  -0.001277   5.227380  -0.020199   8.603270  75.610400   7.591400  -0.173303  -0.256009  -3.193440   9.066550 -14.897100  -8.385840   3.211910 -41.887100  33.957500  72.269900  24.750100   0.008689  -0.003936   7.375060   0.001516  -0.007850  30.941400   6.139260  10.114800  25.760600   0.004922  -0.002655  18.032500  -0.006262   0.000169  27.818600   3.484890   6.567320  32.059600   0.001758  -0.009518  21.351700  -0.000350  -0.004132  28.417400   1.994050   3.676510  35.681900   0.000550  -0.002414  23.764200   0.004232  -0.006927  37.962400  -0.500851  -0.648631  56.947900  -0.002395  -0.003948  37.927300   0.000093  -0.005193   2.114960   7.715440   2.027620  -0.142727   0.800216   7.764180  -1.746500  -4.349430   2.946900  -0.000000   0.000000  -0.000000   0.805677   2.605810  -4.054490   1.451420   5.326550  -7.979860  -4.475490  -3.170200  -3.276740  -0.000000   0.000000   0.000000
 -0.057935  89.516900  -0.041331  -2.107820  -3.539700   3.325490   1.064750   2.209230  -0.436242   2.148700   4.409880  -0.914540   0.287387  -0.337124   0.001919   0.472174  -0.683419   3.139930  -5.106670   2.542160  -1.255880 -73.468500  15.311200  -5.797250  -2.031110  -3.161930 -11.443300   5.310200  -7.608760   9.353560  41.476900  29.081000 -68.045100 -14.311500  -0.002930  -0.000677  -2.151340  -0.001441  -0.000000 -26.827500   5.101340  -9.971680 -22.309100   0.002325   0.013623 -15.618600  -0.007480   0.007218 -27.080400   3.015030  -5.872720 -27.980800   0.020703   0.067924 -18.635200  -0.008337   0.045864 -27.324900   0.570152  -1.103220 -28.402700   0.015352   0.068076 -18.916200  -0.017618   0.042293 -31.259100   0.644486  -1.061510 -46.897600  -0.019016   0.018721 -31.233800  -0.017672  -0.001275   5.226910  -0.016625   8.599030  75.612500   7.612880  -0.173567  -0.304371  -3.219710   9.051860 -14.982400  -8.492340   3.121260 -41.733300  34.015900  72.235200  25.069500   0.008695  -0.003999   7.534770   0.001512  -0.007843  31.895300   6.353950  10.076500  26.554700   0.004925  -0.002654  18.588300  -0.006263   0.000167  28.039300   3.629300   6.774000  33.964900   0.001757  -0.009520  22.620600  -0.000352  -0.004132  28.522600   2.022940   3.714720  37.843400   0.000546  -0.002407  25.203700   0.004233  -0.006931  39.073400  -0.813407  -0.992987  58.619500  -0.002394  -0.003949  39.040600   0.000090  -0.005188   2.110290   7.711980   2.027510  -0.134303   0.790351   7.746740  -1.749500  -4.337460   2.947840   0.000000   0.000000   0.000000   0.805062   2.595450  -4.061290   1.451220   5.328170  -7.979710  -4.483370  -3.169570  -3.290720   0.000000   0.000000   0.000000
 -0.072560  89.516900  -0.051759  -2.096490  -3.533810   3.359410   1.064760   2.205370  -0.438449   2.148760   4.402130  -0.918877   0.280731  -0.405654   0.001931   0.461247  -0.822214   3.160530  -5.106340   2.549310  -1.255980 -73.463100  15.324000  -5.813880  -2.029420  -3.194140 -11.443500   5.304580  -7.595980   9.375130  41.483300  29.088200 -68.055100 -14.326600  -0.002932  -0.000676  -2.151120  -0.001443   0.000000 -26.826200   5.096120  -9.962290 -22.312300   0.002328  -0.003274 -15.618600   0.002738  -0.001139 -27.099200   3.001810  -5.843210 -28.057000   0.007064   0.045398 -18.685900  -0.011249   0.028694 -27.363600   0.534093  -1.031660 -28.574400   0.010307   0.067872 -19.030600  -0.017485   0.042232 -31.371300   0.604997  -0.991729 -47.064800  -0.019161   0.019532 -31.345200  -0.018162  -0.001271   5.226110  -0.010401   8.592800  75.614600   7.634360  -0.173832  -0.372525  -3.261900   9.037310 -15.106400  -8.643940   2.982410 -41.481400  34.125300  72.199200  25.586500   0.008701  -0.004096   7.793290   0.001508  -0.007837  33.294000   6.676730  10.040500  27.720900   0.004928  -0.002651  19.404600  -0.006263   0.000165  28.338100   3.829660   7.061900  36.739700   0.001756  -0.009522  24.468700  -0.000358  -0.004134  28.675300   2.066350   3.772350  40.938000   0.000542  -0.002396  27.264700   0.004235  -0.006935  40.664300  -1.266890  -1.484000  61.022000  -0.002392  -0.003949  40.640700   0.000085  -0.005183   2.103470   7.704700   2.027250  -0.120016   0.775154   7.717380  -1.755200  -4.317640   2.948750   0.000000   0.000000   0.000000   0.804067   2.577770  -4.071250   1.450860   5.330470  -7.979570  -4.496580  -3.168760  -3.314970   0.000000   0.000000   0.000000
 -0.085096  89.516900  -0.061482  -2.089070  -3.527600   3.387460   1.064750   2.201690  -0.439893   2.148770   4.394740  -0.921704   0.272723  -0.472021   0.001933   0.447999  -0.957019   3.168700  -5.105960   2.558620  -1.255130 -73.457400  15.340900  -5.828980  -2.025890  -3.219620 -11.444300   5.314700  -7.590340   9.397430  41.476900  29.095400 -68.063700 -14.320900   0.007794   0.005071  -2.151020   0.003825  -0.000000 -26.832700   5.103110  -9.972880 -22.319900   0.002337  -0.003261 -15.623000   0.002708  -0.001154 -27.111100   3.002300  -5.843380 -28.109800  -0.000261   0.015765 -18.721100  -0.006107   0.009001 -27.392700   0.523624  -1.010250 -28.710800   0.003353   0.030154 -19.121400  -0.008390   0.018654 -31.447900   0.593824  -0.970628 -47.179500  -0.009003   0.008752 -31.421500  -0.008301  -0.001267   5.225290  -0.003598   8.589040  75.609300   7.617950  -0.173761  -0.399641  -3.293980   9.051430 -15.163400  -8.717800   2.895640 -41.299800  34.254200  72.232300  25.994900   0.008697  -0.004161   7.997470   0.001509  -0.007842  34.017400   6.863310  10.046100  28.326700   0.004919  -0.002638  19.828700  -0.006261   0.000163  28.426900   3.896730   7.158080  38.119100   0.001747  -0.009523  25.387400  -0.000368  -0.004137  28.740600   2.083430   3.793120  42.339700   0.000542  -0.002390  28.198100   0.004236  -0.006933  41.403900  -1.490990  -1.700420  62.140200  -0.002394  -0.003948  41.385400   0.000082  -0.005183   2.099450   7.692870   2.027020  -0.106921   0.767465   7.691150  -1.761320  -4.302110   2.947040   0.000000   0.000000   0.000000   0.806754   2.558870  -4.075870   1.450390   5.331510  -7.979630  -4.507580  -3.168570  -3.337690   0.000000   0.000000  -0.000000
 -0.098478  89.516900  -0.071146  -2.082620  -3.523770   3.414350   1.064740   2.199510  -0.441521   2.148800   4.390380  -0.924934   0.263316  -0.549154   0.001936   0.432439  -1.113700   3.174060  -5.105720   2.565400  -1.254280 -73.451500  15.358300  -5.842550  -2.021020  -3.240240 -11.448400   5.331910  -7.588230   9.417730  41.468500  29.102200 -68.071600 -14.314200   0.018519   0.010817  -2.150980   0.009094  -0.000000 -26.844400   5.114340  -9.989330 -22.329600   0.002350  -0.003238 -15.630700   0.002661  -0.001158 -27.122800   3.003330  -5.843930 -28.160700  -0.003393  -0.003436 -18.755000  -0.000965  -0.003319 -27.422400   0.518085  -0.998423 -28.852400  -0.001202  -0.007389 -19.215700   0.000590  -0.004872 -31.523400   0.588136  -0.958810 -47.292600   0.001156  -0.002027 -31.496800   0.001561  -0.001261   5.224730   0.000995   8.587270  75.601300   7.601540  -0.173308  -0.413630  -3.320800   9.076960 -15.203300  -8.746760   2.826610 -41.164400  34.381700  72.295700  26.331100   0.008693  -0.004209   8.165560   0.001510  -0.007848  34.505400   7.004860  10.060600  28.736800   0.004907  -0.002623  20.115800  -0.006259   0.000162  28.453700   3.934210   7.215960  39.016000   0.001735  -0.009525  25.984700  -0.000379  -0.004142  28.797300   2.110210   3.831880  43.146700   0.000542  -0.002382  28.735600   0.004238  -0.006930  41.837900  -1.629190  -1.821060  62.795900  -0.002396  -0.003947  41.822100   0.000072  -0.005183   2.097680   7.684860   2.026340  -0.095773   0.757558   7.668830  -1.768430  -4.286690   2.941930  -0.000000   0.000000   0.000000   0.812391   2.547270  -4.079730   1.450120   5.331890  -7.979970  -4.518010  -3.168430  -3.358920   0.000000   0.000000  -0.000000
 -0.113201  89.517000  -0.079512  -2.077360  -3.524010   3.438090   1.064760   2.201440  -0.444556   2.148990   4.394190  -0.930994   0.253282  -0.640061   0.001956   0.415904  -1.298080   3.181950  -5.105690   2.565960  -1.255950 -73.443200  15.370700  -5.849940  -2.013990  -3.248610 -11.459800   5.353140  -7.605210   9.429940  41.466900  29.105600 -68.077600 -14.313000   0.018507   0.010804  -2.151830   0.009088  -0.000000 -26.856100   5.124270 -10.002200 -22.340400   0.002362  -0.003213 -15.638200   0.002630  -0.001165 -27.137000   3.005020  -5.845290 -28.223900  -0.003383  -0.003407 -18.797100  -0.000984  -0.003258 -27.463500   0.505045  -0.969995 -29.047800  -0.001200  -0.007374 -19.345800   0.000577  -0.004872 -31.629900   0.573736  -0.930801 -47.452100   0.001091  -0.001984 -31.603000   0.001512  -0.001253   5.224600   0.001506   8.591590  75.597300   7.602820  -0.167969  -0.421728  -3.339450   9.102970 -15.241000  -8.716140   2.775060 -41.095800  34.476600  72.376600  26.503300   0.008701  -0.004225   8.251620   0.001502  -0.007838  34.805300   7.108060  10.093700  28.991300   0.004898  -0.002615  20.293900  -0.006255   0.000162  28.472600   3.990880   7.313170  39.584600   0.001725  -0.009527  26.363400  -0.000390  -0.004149  28.910500   2.181840   3.944700  43.565500   0.000535  -0.002366  29.014600   0.004240  -0.006927  42.050400  -1.696070  -1.881110  63.117500  -0.002398  -0.003948  42.036300   0.000031  -0.005180   2.101050   7.689910   2.022260  -0.089700   0.732381   7.658510  -1.776320  -4.267370   2.932270   0.000000   0.000000  -0.000000   0.818708   2.547800  -4.085170   1.450220   5.329040  -7.982620  -4.526790  -3.168160  -3.373280   0.000000   0.000000  -0.000000
